HIERARCHY
ROOT Hips
{
	OFFSET 0.00000 0.00000 0.00000
	CHANNELS 6 Xposition Yposition Zposition Zrotation Yrotation Xrotation 
	JOINT LHipJoint
	{
		OFFSET 0 0 0
		CHANNELS 3 Zrotation Yrotation Xrotation
		JOINT LeftUpLeg
		{
			OFFSET 1.57358 -1.76629 0.73362
			CHANNELS 3 Zrotation Yrotation Xrotation
			JOINT LeftLeg
			{
				OFFSET 2.40600 -6.61045 0.00000
				CHANNELS 3 Zrotation Yrotation Xrotation
				JOINT LeftFoot
				{
					OFFSET 2.66168 -7.31291 0.00000
					CHANNELS 3 Zrotation Yrotation Xrotation
					JOINT LeftToeBase
					{
						OFFSET 0.20870 -0.57341 2.12506
						CHANNELS 3 Zrotation Yrotation Xrotation
						End Site
						{
							OFFSET 0.00000 -0.00000 1.10557
						}
					}
				}
			}
		}
	}
	JOINT RHipJoint
	{
		OFFSET 0 0 0
		CHANNELS 3 Zrotation Yrotation Xrotation
		JOINT RightUpLeg
		{
			OFFSET -1.49299 -1.76629 0.73362
			CHANNELS 3 Zrotation Yrotation Xrotation
			JOINT RightLeg
			{
				OFFSET -2.43663 -6.69460 0.00000
				CHANNELS 3 Zrotation Yrotation Xrotation
				JOINT RightFoot
				{
					OFFSET -2.62959 -7.22474 0.00000
					CHANNELS 3 Zrotation Yrotation Xrotation
					JOINT RightToeBase
					{
						OFFSET -0.25784 -0.70841 2.21862
						CHANNELS 3 Zrotation Yrotation Xrotation
						End Site
						{
							OFFSET -0.00000 -0.00000 1.16452
						}
					}
				}
			}
		}
	}
	JOINT LowerBack
	{
		OFFSET 0 0 0
		CHANNELS 3 Zrotation Yrotation Xrotation
		JOINT Spine
		{
			OFFSET -0.00034 2.12399 -0.25450
			CHANNELS 3 Zrotation Yrotation Xrotation
			JOINT Spine1
			{
				OFFSET 0.05594 2.14379 -0.03318
				CHANNELS 3 Zrotation Yrotation Xrotation
				JOINT Neck
				{
					OFFSET 0 0 0
					CHANNELS 3 Zrotation Yrotation Xrotation
					JOINT Neck1
					{
						OFFSET -0.09835 1.62725 0.24211
						CHANNELS 3 Zrotation Yrotation Xrotation
						JOINT Head
						{
							OFFSET 0.10849 1.66041 -0.22648
							CHANNELS 3 Zrotation Yrotation Xrotation
							End Site
							{
								OFFSET 0.04385 1.68267 -0.10541
							}
						}
					}
				}
				JOINT LeftShoulder
				{
					OFFSET 0 0 0
					CHANNELS 3 Zrotation Yrotation Xrotation
					JOINT LeftArm
					{
						OFFSET 3.29108 0.79398 -0.68179
						CHANNELS 3 Zrotation Yrotation Xrotation
						JOINT LeftForeArm
						{
							OFFSET 5.15310 -0.00000 -0.00000
							CHANNELS 3 Zrotation Yrotation Xrotation
							JOINT LeftHand
							{
								OFFSET 3.75138 -0.00000 -0.00000
								CHANNELS 3 Zrotation Yrotation Xrotation
								JOINT LeftFingerBase
								{
									OFFSET 0 0 0
									CHANNELS 3 Zrotation Yrotation Xrotation
									JOINT LeftHandIndex1
									{
										OFFSET 0.52917 -0.00000 0.00000
										CHANNELS 3 Zrotation Yrotation Xrotation
										End Site
										{
											OFFSET 0.42663 -0.00000 0.00000
										}
									}
								}
								JOINT LThumb
								{
									OFFSET 0 0 0
									CHANNELS 3 Zrotation Yrotation Xrotation
									End Site
									{
										OFFSET 0.43315 -0.00000 0.43315
									}
								}
							}
						}
					}
				}
				JOINT RightShoulder
				{
					OFFSET 0 0 0
					CHANNELS 3 Zrotation Yrotation Xrotation
					JOINT RightArm
					{
						OFFSET -3.07414 1.06285 -0.44338
						CHANNELS 3 Zrotation Yrotation Xrotation
						JOINT RightForeArm
						{
							OFFSET -5.29613 -0.00000 0.00000
							CHANNELS 3 Zrotation Yrotation Xrotation
							JOINT RightHand
							{
								OFFSET -3.76144 -0.00000 -0.00000
								CHANNELS 3 Zrotation Yrotation Xrotation
								JOINT RightFingerBase
								{
									OFFSET 0 0 0
									CHANNELS 3 Zrotation Yrotation Xrotation
									JOINT RightHandIndex1
									{
										OFFSET -0.74732 -0.00000 0.00000
										CHANNELS 3 Zrotation Yrotation Xrotation
										End Site
										{
											OFFSET -0.60251 -0.00000 0.00000
										}
									}
								}
								JOINT RThumb
								{
									OFFSET 0 0 0
									CHANNELS 3 Zrotation Yrotation Xrotation
									End Site
									{
										OFFSET -0.61171 -0.00000 0.61171
									}
								}
							}
						}
					}
				}
			}
		}
	}
}
MOTION
Frames: 15
Frame Time: 0.133333
0.00 0.00 0.00 0 0 0 0 0 0 -21 0 0 0 0 0 0 0 0 0 0 0 0 0 0 21 0 0 0 0 0 0 0 0 0 0 0 0 0 0 0 0 0 0 0 0 0 0 -16 0 0 21 0 0 11 0 0 0 -8 0 0 0 0 0 0 0 0 0 0 0 0 0 0 0 0 0 0 0 0 8 0 0 0 0 0 0 0 0 0 0 0 0 0 0 0 0 0
0.00 0.00 0.00 -2.0329 -1.7100 12.8350 0.0000 0.0000 0.0000 -16.3010 -13.7214 -28.4589 3.7706 11.8487 35.1988 0.7134 0.2995 -16.0720 0.0206 0.9270 2.5479 0.0000 0.0000 0.0000 21.6779 12.3957 -25.3986 -3.1846 -10.9880 32.2393 -0.4540 -4.8561 -15.4396 -0.0230 -0.9792 2.6917 0.8683 -0.0799 14.4500 3.8894 0.3175 1.1189 3.5867 0.1876 -6.9466 -9.8210 -4.2227 -17.4523 5.1884 -4.4725 24.2812 2.8800 -2.3067 11.1050 0.0000 -0.0000 0.0000 -90.1672 1.7440 25.7757 30.3129 -41.1601 -11.6150 -0.0000 0.0000 -2.3916 16.5759 26.4007 7.5393 -7.1250 0.0000 -0.0000 -14.7068 56.7511 -4.3000 0.0000 -0.0000 0.0000 84.7350 -2.3590 23.1722 -32.6333 43.0463 -13.1711 0.0000 -0.0000 -3.0675 -14.2256 13.5653 -3.4030 7.1250 -0.0000 -0.0000 9.0224 -16.1146 6.2424
0.00 0.00 0.00 -2.0309 -1.8473 21.1043 0.0000 0.0000 0.0000 -12.3486 -15.5550 -48.6833 7.2761 15.5600 49.9109 1.1242 -3.0042 -19.2658 0.0015 0.2489 0.6840 0.0000 0.0000 0.0000 18.0382 17.0006 -45.5263 -6.8553 -15.2088 48.3250 -0.9235 -3.4316 -19.7024 -0.0261 -1.0439 2.8695 0.8404 0.7701 20.4650 3.1594 1.4910 2.4131 2.5575 0.7355 -8.9004 -9.2758 -4.4963 -20.0612 6.4223 -4.8806 19.3795 3.0842 -2.2112 9.8598 0.0000 -0.0000 0.0000 -87.1809 1.1785 26.4165 53.6471 -54.3646 -29.1133 -0.0000 0.0000 -10.0190 18.6359 21.5674 7.0667 -7.1250 0.0000 -0.0000 -10.3782 52.3282 -1.8887 0.0000 -0.0000 0.0000 85.4282 -2.7422 24.5735 -59.7761 56.2500 -34.1549 0.0000 -0.0000 -6.5118 -27.0305 22.1390 -10.8834 7.1250 -0.0000 -0.0000 1.1456 -5.4357 1.0321
0.00 0.00 0.00 -2.3365 -1.5015 30.3560 0.0000 0.0000 0.0000 -6.3607 -18.8412 -67.8599 11.8472 18.3253 65.5035 1.8544 -3.1898 -24.9426 0.0004 -0.1243 -0.3415 0.0000 0.0000 0.0000 13.2896 21.4450 -64.7552 -11.4821 -18.1630 64.3376 -1.4751 -5.0504 -25.2486 -0.0092 -0.6180 1.6981 1.0219 0.9094 24.9692 2.8478 1.7669 3.0730 2.0100 0.8386 -10.5789 -8.8002 -4.5820 -22.6945 6.6546 -4.7232 13.8138 3.0345 -2.0155 8.3678 -0.0000 -0.0000 0.0000 -86.5064 -4.7943 25.6613 61.0738 -56.5893 -35.2360 -0.0000 0.0000 -14.1565 21.9009 22.1573 8.6216 -7.1250 0.0000 -0.0000 -7.3068 53.5293 -1.5390 -0.0000 -0.0000 0.0000 83.4228 4.2237 27.4859 -71.2765 58.6330 -43.8594 0.0000 -0.0000 -7.8205 -30.1792 24.8722 -13.7441 7.1250 -0.0000 -0.0000 -0.3890 -1.7763 -0.3768
0.00 0.00 0.00 -4.3651 -1.1473 22.7034 0.0000 0.0000 0.0000 -8.8896 -13.9922 -44.8357 12.6027 18.6340 67.8868 1.6138 -8.3488 -22.7479 1.8727 -8.5956 -24.5384 0.0000 0.0000 0.0000 25.2581 14.6697 -31.5486 -7.4816 -15.7244 50.6732 -2.4042 -8.3904 -33.2110 -0.2608 3.2857 -9.0752 1.8507 1.5986 21.7976 3.5471 2.9431 1.3223 1.9767 1.3832 -10.8784 -8.2832 -5.8226 -26.6132 8.3095 -6.7251 15.6861 3.2036 -2.6405 9.8952 -0.0000 -0.0000 0.0000 -83.6710 -2.6447 33.6765 52.3947 -53.9168 -28.0982 -0.0000 0.0000 -16.2878 25.9215 25.9948 12.0257 -7.1250 0.0000 -0.0000 -4.4698 58.3890 -1.4656 -0.0000 -0.0000 0.0000 79.2041 -1.2699 30.8106 -88.7533 59.9941 -58.9204 0.0000 0.0000 2.7716 -27.1438 24.1625 -11.8520 7.1250 -0.0000 -0.0000 1.3452 -3.2309 1.2676
0.00 0.00 0.00 -4.1481 -1.4385 18.4785 0.0000 0.0000 0.0000 -12.8016 -9.8697 -30.9255 9.6961 17.2354 58.4678 1.2153 -8.1941 -19.7252 1.9304 -8.7197 -24.9223 0.0000 0.0000 0.0000 26.5434 6.0761 -18.5108 -4.6745 -13.0076 39.3968 -1.8979 -4.2550 -27.8309 -0.5871 4.9058 -13.6400 1.6301 1.4972 18.2511 3.6113 2.6783 0.5033 2.3069 1.2909 -9.8244 -8.2508 -5.9207 -25.9256 8.3011 -7.0859 17.9465 3.1629 -2.8008 10.6276 -0.0000 -0.0000 0.0000 -81.4579 7.0625 35.9603 59.6004 -56.2025 -34.0088 -0.0000 0.0000 -18.0332 25.9456 22.5996 10.5908 -7.1250 0.0000 -0.0000 -3.2478 54.7903 -0.7816 -0.0000 -0.0000 0.0000 76.5824 -11.7514 34.7124 -106.4595 58.9512 -74.2041 0.0000 0.0000 7.4354 -28.2059 25.0060 -12.7737 7.1250 -0.0000 -0.0000 0.8220 -2.0907 0.7916
0.00 0.00 0.00 -3.8885 -1.6114 15.1884 0.0000 0.0000 0.0000 -14.9833 -6.5449 -18.2195 6.4923 14.8890 46.9269 0.1448 -8.3765 -8.4075 2.2220 -9.3140 -26.7826 0.0000 0.0000 0.0000 25.7900 0.8001 -8.5786 -3.1078 -10.8676 31.8345 -0.4614 -1.5722 -13.4983 -0.9642 6.2520 -17.5173 1.5976 1.3297 12.1399 3.6964 2.2455 0.1068 2.6059 1.1074 -6.8013 -8.1422 -5.6529 -23.6687 8.1296 -7.0106 19.5798 3.1392 -2.8223 10.8052 -0.0000 -0.0000 0.0000 -79.4884 16.0284 37.4155 67.3854 -57.9765 -40.5483 -0.0000 0.0000 -18.8084 26.6623 24.2439 11.6502 -7.1250 0.0000 -0.0000 -3.0023 56.6992 -0.8615 -0.0000 -0.0000 0.0000 73.3088 -21.1527 39.8055 -121.5889 55.8715 -86.9776 0.0000 0.0000 6.5820 -31.7064 26.8035 -15.5663 7.1250 -0.0000 -0.0000 -0.9635 0.7200 -0.9757
0.00 0.00 0.00 -4.5453 -3.8631 12.9714 0.0000 0.0000 0.0000 -15.7202 -3.9441 -9.1135 4.0998 12.2920 36.7730 -0.0089 -4.7819 6.5059 1.9501 -8.7614 -25.0517 0.0000 0.0000 0.0000 25.3914 2.1686 -3.2957 -2.7074 -10.2055 29.6449 0.0062 -4.7061 3.0694 -0.6692 5.2315 -14.5699 2.0719 1.7408 8.1512 3.6819 2.6955 -0.1969 2.3384 1.3265 -4.8652 -8.4581 -5.3480 -20.8718 7.9939 -6.7901 21.3116 3.2358 -2.8221 10.9102 0.0000 0.0000 0.0000 -78.6121 22.7762 36.6950 72.2856 -58.7805 -44.7217 -0.0000 0.0000 -18.6996 25.7533 22.5943 10.5003 -7.1250 0.0000 -0.0000 -3.4496 54.7454 -0.8265 0.0000 0.0000 0.0000 70.9968 -27.3510 44.1225 -129.9372 53.0208 -93.7757 0.0000 0.0000 3.4563 -35.2861 28.2628 -18.5258 7.1250 -0.0000 -0.0000 -2.7479 3.3552 -2.9073
0.00 0.00 0.00 -4.4195 -5.7220 11.9267 0.0000 0.0000 0.0000 -17.3690 -5.8836 -1.4810 2.3625 9.5836 27.6385 1.5596 6.1557 22.4120 1.2959 -7.2125 -20.3465 0.0000 0.0000 0.0000 24.4422 3.5435 -2.1017 -2.8550 -10.4565 30.4680 -1.1884 -8.3492 19.5166 -0.2740 -3.3671 9.3025 2.0559 1.8885 3.9399 3.5115 2.7140 -0.5237 2.2922 1.3476 -2.8247 -8.5614 -5.0675 -19.7387 7.2022 -6.4457 24.3976 3.0809 -2.7914 11.7930 0.0000 0.0000 0.0000 -78.8845 28.5686 34.0121 75.4125 -59.1805 -47.4016 -0.0000 0.0000 -18.8731 25.2985 21.3225 9.7521 -7.1250 0.0000 -0.0000 -3.5505 53.2971 -0.7253 0.0000 0.0000 0.0000 68.9547 -31.0898 47.2549 -133.6332 51.4208 -96.6976 0.0000 0.0000 3.1249 -39.8032 29.7723 -22.4778 7.1250 -0.0000 -0.0000 -4.9366 6.5713 -5.4884
0.00 0.00 0.00 -1.3907 -7.4846 8.4389 0.0000 0.0000 0.0000 -22.5070 -9.0564 2.7169 2.3861 9.6278 27.7796 3.8965 3.9715 36.5625 0.0582 -1.5573 -4.2837 0.0000 0.0000 0.0000 21.6562 6.3515 -8.1060 -6.1064 -14.5307 45.4074 -1.4694 -7.4123 21.6884 -1.0701 -6.5761 18.4653 -0.8176 1.2792 3.8017 2.2987 1.7328 -0.7735 2.7159 0.8991 -3.0240 -8.4858 -4.3543 -19.2880 5.8176 -5.2845 28.0742 2.8072 -2.4727 13.0039 0.0000 0.0000 0.0000 -81.9821 37.4035 23.6846 77.4536 -59.3968 -49.1565 -0.0000 0.0000 -18.6780 25.9131 26.0889 12.0606 -7.1250 0.0000 -0.0000 -4.5175 58.4863 -1.4919 0.0000 0.0000 0.0000 70.1688 -34.2418 44.5755 -131.1611 52.5163 -94.7502 0.0000 0.0000 4.0414 -40.2697 27.6537 -21.4641 7.1250 -0.0000 -0.0000 -5.7172 4.3457 -6.1638
0.00 0.00 0.00 -0.6052 -7.0840 4.1163 0.0000 0.0000 0.0000 -22.4302 -5.5309 -3.3232 4.7320 13.0755 39.6518 3.1896 3.9540 32.9229 0.0052 -0.4650 -1.2776 0.0000 0.0000 0.0000 21.8865 5.2416 -15.5746 -8.6522 -16.5786 54.8794 -1.5302 -12.9790 22.6179 -1.3449 -7.3422 20.7333 -1.4317 1.0879 9.3914 1.6921 1.3732 0.8590 2.3875 0.7197 -4.4496 -8.8739 -3.9206 -18.2237 5.7492 -4.5653 27.4114 2.9649 -2.2180 12.4597 -0.0000 -0.0000 0.0000 -83.3254 34.5786 17.3220 62.9788 -57.0528 -36.8305 -0.0000 0.0000 -14.8806 27.1177 27.1027 13.1329 -7.1250 0.0000 -0.0000 -3.5707 59.8430 -1.2946 -0.0000 -0.0000 0.0000 77.0552 -31.0858 32.7829 -116.1249 57.2571 -82.4164 0.0000 -0.0000 -1.1758 -35.6994 22.9715 -15.6653 7.1250 -0.0000 -0.0000 -4.0512 -2.4765 -3.8822
0.00 0.00 0.00 -0.4375 -5.5680 3.3927 0.0000 0.0000 0.0000 -21.2045 -4.3598 -9.4433 5.4890 13.9142 42.8946 2.1967 3.6467 27.1485 0.0023 -0.3073 -0.8444 0.0000 0.0000 0.0000 22.1085 4.2485 -21.2833 -8.4921 -16.4695 54.3165 -1.2741 -14.6126 21.2217 -0.6361 -5.1030 14.2024 -2.1322 0.6359 11.5805 2.1650 0.6916 1.0508 3.3683 0.4122 -5.4494 -10.3930 -3.6266 -16.6033 5.8457 -3.8921 28.3348 3.4028 -2.1060 12.4805 -0.0000 -0.0000 0.0000 -83.9745 30.1483 14.7731 48.5881 -52.4099 -25.0509 -0.0000 0.0000 -11.0476 26.3835 24.0341 11.4217 -7.1250 0.0000 -0.0000 -3.2359 56.4143 -0.9063 -0.0000 -0.0000 0.0000 79.0403 -28.1083 26.6348 -99.6883 59.6423 -68.3802 0.0000 -0.0000 -3.1791 -33.7145 20.9324 -13.4089 7.1250 -0.0000 -0.0000 -3.1954 -5.3171 -2.8902
0.00 0.00 0.00 -0.9134 -3.4686 2.7912 0.0000 0.0000 0.0000 -19.7126 -5.0133 -13.2898 4.8366 13.1974 40.1119 1.7020 2.8669 23.9211 0.0446 -1.3627 -3.7474 0.0000 0.0000 0.0000 22.8276 3.4940 -24.5727 -6.8193 -15.1778 48.1876 -1.0998 -15.0796 20.1260 -0.4482 -4.2954 11.9093 -1.7524 0.4308 13.0918 2.5008 0.4719 1.5478 3.5478 0.2970 -5.7490 -10.3029 -3.6987 -15.0061 5.3176 -4.0295 28.2699 3.1703 -2.2417 12.1273 0.0000 0.0000 0.0000 -82.6644 24.1743 16.2047 37.2696 -46.3664 -16.4349 -0.0000 0.0000 -13.6753 27.3825 21.2836 10.6481 -7.1250 0.0000 -0.0000 -1.3703 53.6621 -0.2919 0.0000 0.0000 0.0000 80.4062 -24.3919 21.8139 -79.7903 59.6024 -51.1699 0.0000 -0.0000 -5.4208 -32.5635 20.8642 -12.8139 7.1250 -0.0000 -0.0000 -2.4902 -5.6648 -2.2344
0.00 0.00 0.00 -0.4680 0.1228 2.4693 0.0000 0.0000 0.0000 -18.8981 -9.6777 -16.6021 2.1418 9.1554 26.2827 0.9219 1.4124 17.7247 0.0645 -1.6392 -4.5096 0.0000 0.0000 0.0000 20.9044 4.7894 -26.9770 -3.1440 -10.9246 32.0259 -0.8994 -9.1831 17.1507 -0.1023 -2.0625 5.6783 -2.0807 0.4152 14.4470 2.4077 0.3883 1.4190 3.6629 0.2801 -6.6335 -10.7073 -4.1046 -11.5160 6.3284 -5.2102 28.9192 3.5009 -2.7472 11.8191 0.0000 0.0000 0.0000 -81.5752 17.0705 17.9892 27.3223 -38.4849 -9.6991 -0.0000 0.0000 -10.7345 27.1936 21.3025 10.5729 -7.1250 0.0000 -0.0000 -1.5730 53.6451 -0.3344 0.0000 0.0000 0.0000 79.5449 -20.0179 19.8374 -48.1051 52.2021 -24.6688 0.0000 -0.0000 -4.0951 -29.1653 18.6771 -10.1328 7.1250 -0.0000 -0.0000 -0.6425 -8.8186 -0.5364
0.00 0.00 0.00 -2.4693 3.9772 -2.8392 0.0000 0.0000 0.0000 -16.4627 -12.8313 -25.0428 2.2749 9.4167 27.1076 0.1931 -2.2190 9.4244 0.1131 -2.1681 -5.9704 0.0000 0.0000 0.0000 20.8136 5.1359 -26.4459 -3.3640 -11.2622 33.1693 -0.0942 -0.6139 5.6110 -0.1307 -2.3307 6.4204 -0.8019 1.1400 15.5670 3.1880 1.5922 2.6322 3.5163 0.8267 -6.0395 -11.3455 -5.3794 -12.1670 6.8293 -6.9752 29.5470 3.5475 -3.5260 12.4496 0.0000 0.0000 0.0000 -82.5491 10.6157 24.3388 27.0738 -38.2495 -9.5448 -0.0000 0.0000 -9.8721 25.6025 21.1808 9.8223 -7.1250 0.0000 -0.0000 -3.1968 53.2039 -0.6456 0.0000 0.0000 0.0000 74.0978 -14.8538 29.5453 -25.2510 36.4594 -8.4386 0.0000 -0.0000 -1.3742 -19.5359 19.4737 -6.7461 7.1250 -0.0000 -0.0000 5.6596 -9.4939 4.6720
